HIERARCHY
ROOT Hips
{
	OFFSET 0.00000 0.00000 0.00000
	CHANNELS 6 Xposition Yposition Zposition Zrotation Yrotation Xrotation 
	JOINT LHipJoint
	{
		OFFSET 0 0 0
		CHANNELS 3 Zrotation Yrotation Xrotation
		JOINT LeftUpLeg
		{
			OFFSET 1.56857 -1.73443 1.15205
			CHANNELS 3 Zrotation Yrotation Xrotation
			JOINT LeftLeg
			{
				OFFSET 2.39362 -6.57643 0.00000
				CHANNELS 3 Zrotation Yrotation Xrotation
				JOINT LeftFoot
				{
					OFFSET 2.50952 -6.89485 0.00000
					CHANNELS 3 Zrotation Yrotation Xrotation
					JOINT LeftToeBase
					{
						OFFSET 0.17171 -0.47178 1.88682
						CHANNELS 3 Zrotation Yrotation Xrotation
						End Site
						{
							OFFSET 0.00000 -0.00000 0.98146
						}
					}
				}
			}
		}
	}
	JOINT RHipJoint
	{
		OFFSET 0 0 0
		CHANNELS 3 Zrotation Yrotation Xrotation
		JOINT RightUpLeg
		{
			OFFSET -1.28153 -1.73443 1.15205
			CHANNELS 3 Zrotation Yrotation Xrotation
			JOINT RightLeg
			{
				OFFSET -2.26861 -6.23296 0.00000
				CHANNELS 3 Zrotation Yrotation Xrotation
				JOINT RightFoot
				{
					OFFSET -2.54143 -6.98254 0.00000
					CHANNELS 3 Zrotation Yrotation Xrotation
					JOINT RightToeBase
					{
						OFFSET -0.23309 -0.64041 1.93119
						CHANNELS 3 Zrotation Yrotation Xrotation
						End Site
						{
							OFFSET -0.00000 -0.00000 1.02013
						}
					}
				}
			}
		}
	}
	JOINT LowerBack
	{
		OFFSET 0 0 0
		CHANNELS 3 Zrotation Yrotation Xrotation
		JOINT Spine
		{
			OFFSET -0.07096 2.10460 -0.27878
			CHANNELS 3 Zrotation Yrotation Xrotation
			JOINT Spine1
			{
				OFFSET -0.00826 2.13662 -0.08279
				CHANNELS 3 Zrotation Yrotation Xrotation
				JOINT Neck
				{
					OFFSET 0 0 0
					CHANNELS 3 Zrotation Yrotation Xrotation
					JOINT Neck1
					{
						OFFSET 0.03239 1.77799 0.24435
						CHANNELS 3 Zrotation Yrotation Xrotation
						JOINT Head
						{
							OFFSET 0.01026 1.74194 -0.49664
							CHANNELS 3 Zrotation Yrotation Xrotation
							End Site
							{
								OFFSET 0.00170 1.83057 -0.19653
							}
						}
					}
				}
				JOINT LeftShoulder
				{
					OFFSET 0 0 0
					CHANNELS 3 Zrotation Yrotation Xrotation
					JOINT LeftArm
					{
						OFFSET 3.19178 1.35907 -0.31412
						CHANNELS 3 Zrotation Yrotation Xrotation
						JOINT LeftForeArm
						{
							OFFSET 4.85247 -0.00000 -0.00000
							CHANNELS 3 Zrotation Yrotation Xrotation
							JOINT LeftHand
							{
								OFFSET 3.55584 -0.00000 0.00000
								CHANNELS 3 Zrotation Yrotation Xrotation
								JOINT LeftFingerBase
								{
									OFFSET 0 0 0
									CHANNELS 3 Zrotation Yrotation Xrotation
									JOINT LeftHandIndex1
									{
										OFFSET 0.69320 -0.00000 0.00000
										CHANNELS 3 Zrotation Yrotation Xrotation
										End Site
										{
											OFFSET 0.55888 -0.00000 0.00000
										}
									}
								}
								JOINT LThumb
								{
									OFFSET 0 0 0
									CHANNELS 3 Zrotation Yrotation Xrotation
									End Site
									{
										OFFSET 0.56741 -0.00000 0.56741
									}
								}
							}
						}
					}
				}
				JOINT RightShoulder
				{
					OFFSET 0 0 0
					CHANNELS 3 Zrotation Yrotation Xrotation
					JOINT RightArm
					{
						OFFSET -3.28999 1.24191 -0.26899
						CHANNELS 3 Zrotation Yrotation Xrotation
						JOINT RightForeArm
						{
							OFFSET -4.64462 -0.00000 0.00000
							CHANNELS 3 Zrotation Yrotation Xrotation
							JOINT RightHand
							{
								OFFSET -3.40703 -0.00000 0.00000
								CHANNELS 3 Zrotation Yrotation Xrotation
								JOINT RightFingerBase
								{
									OFFSET 0 0 0
									CHANNELS 3 Zrotation Yrotation Xrotation
									JOINT RightHandIndex1
									{
										OFFSET -0.61958 -0.00000 0.00000
										CHANNELS 3 Zrotation Yrotation Xrotation
										End Site
										{
											OFFSET -0.49952 -0.00000 0.00000
										}
									}
								}
								JOINT RThumb
								{
									OFFSET 0 0 0
									CHANNELS 3 Zrotation Yrotation Xrotation
									End Site
									{
										OFFSET -0.50715 -0.00000 0.50715
									}
								}
							}
						}
					}
				}
			}
		}
	}
}
MOTION
Frames: 11
Frame Time: .0083333
-29.0189 16.9964 1.1815 0 0 0 0 0 0 -21 0 0 0 0 0 0 0 0 0 0 0 0 0 0 21 0 0 0 0 0 0 0 0 0 0 0 0 0 0 0 0 0 0 0 0 0 0 -16 0 0 21 0 0 11 0 0 0 -8 0 0 0 0 0 0 0 0 0 0 0 0 0 0 0 0 0 0 0 0 8 0 0 0 0 0 0 0 0 0 0 0 0 0 0 0 0 0
-29.0189 16.9964 1.1815 26.3910 83.1370 26.4209 0.0000 0.0000 0.0000 0.0000 0.0000 0.0000 0.0000 0.0000 0.0000 0.0000 0.0000 0.0000 0.0000 0.0000 0.0000 0.0000 0.0000 0.0000 0.0000 0.0000 0.0000 0.0000 0.0000 0.0000 -0.0000 -0.0000 0.0000 -0.0000 -0.0000 0.0000 -4.9259 1.6267 1.3052 -1.0431 2.1466 1.1005 1.6615 1.0584 0.2597 4.1032 2.5106 -22.2391 -1.3007 2.6488 24.5256 -0.7186 1.4753 11.8071 -0.0000 0.0000 0.0000 -0.0000 0.0000 -0.0000 -0.0000 0.0000 -0.0000 -0.0000 0.0000 0.0000 -0.0000 -0.0000 0.0000 -0.0000 -0.0000 0.0000 -0.0000 0.0000 0.0000 -0.0000 0.0000 0.0000 0.0000 -0.0000 -0.0000 0.0000 -0.0000 -0.0000 0.0000 0.0000 0.0000 0.0000 0.0000 0.0000 0.0000 0.0000 0.0000 0.0000 -0.0000 0.0000
-29.0167 16.9958 1.1839 24.8843 83.0810 24.9638 0.0000 0.0000 0.0000 0.0000 0.0000 0.0000 0.0000 0.0000 0.0000 0.0000 0.0000 0.0000 0.0000 0.0000 0.0000 0.0000 0.0000 0.0000 0.0000 0.0000 0.0000 0.0000 0.0000 0.0000 -0.0000 -0.0000 0.0000 -0.0000 -0.0000 0.0000 -4.8108 1.7159 1.2559 -1.0206 2.2667 1.0577 1.6193 1.1196 0.2388 4.3349 2.5030 -22.3195 -1.4761 2.5995 24.5158 -0.8303 1.4506 11.8239 -0.0000 0.0000 0.0000 -0.0000 0.0000 -0.0000 -0.0000 0.0000 -0.0000 -0.0000 0.0000 0.0000 -0.0000 -0.0000 0.0000 -0.0000 -0.0000 0.0000 -0.0000 0.0000 0.0000 -0.0000 0.0000 0.0000 0.0000 -0.0000 -0.0000 0.0000 -0.0000 -0.0000 0.0000 0.0000 0.0000 0.0000 0.0000 0.0000 0.0000 0.0000 0.0000 0.0000 -0.0000 0.0000
-29.0157 16.9981 1.1850 23.4823 83.1371 23.5086 0.0000 0.0000 0.0000 0.0000 0.0000 0.0000 0.0000 0.0000 0.0000 0.0000 0.0000 0.0000 0.0000 0.0000 0.0000 0.0000 0.0000 0.0000 0.0000 0.0000 0.0000 0.0000 0.0000 0.0000 -0.0000 -0.0000 0.0000 -0.0000 -0.0000 0.0000 -4.6467 1.7287 1.3521 -0.9692 2.2772 1.0286 1.5766 1.1271 0.1582 4.4344 2.5213 -22.2266 -1.5539 2.6144 24.4177 -0.8743 1.4557 11.7714 -0.0000 0.0000 0.0000 -0.0000 0.0000 -0.0000 -0.0000 0.0000 -0.0000 -0.0000 0.0000 0.0000 -0.0000 -0.0000 0.0000 -0.0000 -0.0000 0.0000 -0.0000 0.0000 0.0000 -0.0000 0.0000 0.0000 0.0000 -0.0000 -0.0000 0.0000 -0.0000 -0.0000 0.0000 0.0000 0.0000 0.0000 0.0000 0.0000 0.0000 0.0000 0.0000 0.0000 -0.0000 0.0000
-29.0144 16.9994 1.1835 23.5962 83.2127 23.6127 0.0000 0.0000 0.0000 0.0000 0.0000 0.0000 0.0000 0.0000 0.0000 0.0000 0.0000 0.0000 0.0000 0.0000 0.0000 0.0000 0.0000 0.0000 0.0000 0.0000 0.0000 0.0000 0.0000 0.0000 -0.0000 -0.0000 0.0000 -0.0000 -0.0000 0.0000 -4.6293 1.7013 1.3919 -0.9454 2.2366 0.9941 1.5900 1.1083 0.1026 4.3940 2.5203 -22.1620 -1.5498 2.6277 24.3502 -0.8644 1.4580 11.7326 -0.0000 0.0000 0.0000 -0.0000 0.0000 -0.0000 -0.0000 0.0000 -0.0000 -0.0000 0.0000 0.0000 -0.0000 -0.0000 0.0000 -0.0000 -0.0000 0.0000 -0.0000 0.0000 0.0000 -0.0000 0.0000 0.0000 0.0000 -0.0000 -0.0000 0.0000 -0.0000 -0.0000 0.0000 0.0000 0.0000 0.0000 0.0000 0.0000 0.0000 0.0000 0.0000 0.0000 -0.0000 0.0000
-29.0141 17.0007 1.1828 23.5726 83.2619 23.5773 0.0000 0.0000 0.0000 0.0000 0.0000 0.0000 0.0000 0.0000 0.0000 0.0000 0.0000 0.0000 0.0000 0.0000 0.0000 0.0000 0.0000 0.0000 0.0000 0.0000 0.0000 0.0000 0.0000 0.0000 -0.0000 -0.0000 0.0000 -0.0000 -0.0000 0.0000 -4.5938 1.6920 1.4574 -0.9424 2.2183 0.9366 1.5704 1.1018 0.0091 4.2315 2.5397 -22.1720 -1.3743 2.6658 24.4256 -0.7653 1.4845 11.7595 -0.0000 0.0000 0.0000 -87.5580 -2.2414 39.0690 10.6084 -17.6855 -1.6550 -0.0000 -0.0000 17.0022 16.0031 -24.9756 -6.9048 -7.1250 0.0000 -0.0000 -8.2499 4.3548 7.6813 -0.0000 0.0000 0.0000 0.0000 -0.0000 -0.0000 0.0000 -0.0000 -0.0000 0.0000 0.0000 0.0000 0.0000 0.0000 0.0000 0.0000 0.0000 0.0000 0.0000 -0.0000 0.0000
-29.0129 16.9989 1.1806 24.8324 83.1871 24.9612 0.0000 0.0000 0.0000 -16.9888 1.0463 13.2717 0.0290 -1.0995 -3.0226 0.1098 11.3944 -17.6860 0.4424 -4.2678 -11.8312 0.0000 0.0000 0.0000 7.8956 -5.5561 5.2437 -0.0328 -1.1692 3.2146 -0.4835 6.4325 -12.5017 -0.0069 0.5358 -1.4722 -4.7355 1.6836 1.3406 -0.9953 2.2096 0.8484 1.5973 1.0989 -0.0187 4.3383 2.5048 -22.0824 -1.4825 2.6129 24.3691 -0.8331 1.4566 11.7220 -0.0000 -0.0000 0.0000 -87.5740 -2.1548 39.0108 10.6265 -17.7134 -1.6605 -0.0000 -0.0000 17.1474 15.9605 -25.1268 -6.9242 -7.1250 0.0000 -0.0000 -8.2866 4.2083 7.7391 -0.0000 -0.0000 0.0000 87.2714 -0.3318 43.4207 -15.0093 24.1591 -3.2298 0.0000 0.0000 5.8962 -10.0787 -32.5298 5.4597 7.1250 -0.0000 -0.0000 25.9389 -61.0163 -10.5236
-29.0121 16.9991 1.1792 25.2717 83.1405 25.4722 0.0000 0.0000 0.0000 -17.0921 1.0384 13.1930 0.0288 -1.0956 -3.0119 0.1261 11.2594 -17.7191 0.4628 -4.3637 -12.1021 0.0000 0.0000 0.0000 7.8383 -5.4501 5.1948 -0.0328 -1.1693 3.2147 -0.4849 6.3477 -12.5081 -0.0017 0.2670 -0.7335 -4.7893 1.6782 1.2575 -1.0038 2.2051 0.8060 1.6205 1.0970 -0.0169 4.4591 2.5204 -22.1083 -1.6873 2.6491 24.3660 -0.9233 1.4564 11.7320 0.0000 0.0000 0.0000 -87.6267 -2.1377 38.8936 10.6367 -17.7293 -1.6636 -0.0000 -0.0000 17.2375 15.4061 -25.3740 -6.7345 -7.1250 0.0000 -0.0000 -8.6412 4.0390 8.1055 0.0000 0.0000 0.0000 87.1831 -0.3690 43.5431 -15.0776 24.2541 -3.2578 0.0000 0.0000 5.7206 -10.1219 -32.5101 5.4805 7.1250 -0.0000 -0.0000 25.8760 -61.0093 -10.4917
-29.0125 17.0015 1.1803 24.1949 83.1765 24.3493 0.0000 0.0000 0.0000 -16.8946 1.1183 13.2414 0.0292 -1.1026 -3.0312 0.1025 11.3351 -17.5164 0.5313 -4.6706 -12.9713 0.0000 0.0000 0.0000 8.0467 -5.3312 5.3024 -0.0321 -1.1563 3.1788 -0.4872 6.2048 -12.5198 -0.0000 -0.0077 0.0210 -4.6850 1.6836 1.3472 -0.9366 2.2063 0.7879 1.6280 1.0990 -0.0848 4.4210 2.5486 -22.1672 -1.7111 2.7059 24.3761 -0.9160 1.4745 11.7489 0.0000 0.0000 0.0000 -87.7005 -2.1399 38.7737 10.6141 -17.6943 -1.6567 -0.0000 -0.0000 17.3939 16.1227 -25.6627 -7.1355 -7.1250 0.0000 -0.0000 -8.2269 3.6434 7.7693 0.0000 0.0000 0.0000 87.0918 -0.4054 43.6593 -15.1022 24.2883 -3.2679 0.0000 0.0000 5.5460 -10.2372 -32.1797 5.4939 7.1250 -0.0000 -0.0000 25.4564 -60.7435 -10.1468
-29.0120 17.0016 1.1790 24.3919 83.1663 24.6021 0.0000 0.0000 0.0000 -16.9319 1.0850 13.2041 0.0297 -1.1121 -3.0574 0.0895 11.4432 -17.4914 0.5656 -4.8167 -13.3865 0.0000 0.0000 0.0000 7.9611 -5.4782 5.1575 -0.0332 -1.1762 3.2339 -0.4848 6.3675 -12.5100 -0.0000 -0.0017 0.0046 -4.7220 1.6758 1.3184 -0.9193 2.1952 0.7458 1.6667 1.0944 -0.1132 4.2885 2.5413 -22.1675 -1.6094 2.7113 24.3310 -0.8552 1.4771 11.7280 -0.0000 0.0000 0.0000 -87.7732 -2.1625 38.7053 10.5733 -17.6313 -1.6443 -0.0000 -0.0000 17.4636 15.7721 -25.9155 -7.0371 -7.1250 0.0000 -0.0000 -8.4578 3.4404 8.0244 -0.0000 0.0000 0.0000 87.0287 -0.4043 43.7133 -15.0664 24.2385 -3.2532 0.0000 0.0000 5.5227 -10.3081 -31.9959 5.5045 7.1250 -0.0000 -0.0000 25.2189 -60.5965 -9.9562
-29.0111 17.0026 1.1779 24.3721 83.1793 24.6031 0.0000 0.0000 0.0000 -16.9569 0.9839 13.2384 0.0302 -1.1227 -3.0864 0.1101 11.4209 -17.7241 0.4837 -4.4597 -12.3738 0.0000 0.0000 0.0000 7.9505 -5.5218 5.1117 -0.0336 -1.1825 3.2510 -0.4843 6.4427 -12.5134 -0.0012 0.2195 -0.6031 -4.7044 1.6699 1.3315 -0.9186 2.1845 0.6923 1.6564 1.0910 -0.1743 4.3102 2.5150 -22.0809 -1.6525 2.6830 24.2974 -0.8803 1.4613 11.6983 0.0000 -0.0000 0.0000 -87.7837 -2.1665 38.6766 10.5227 -17.5531 -1.6291 -0.0000 -0.0000 17.4108 16.5258 -25.7276 -7.3391 -7.1250 0.0000 -0.0000 -7.9876 3.5173 7.5575 0.0000 -0.0000 0.0000 87.0304 -0.4655 43.6159 -15.0689 24.2421 -3.2542 0.0000 0.0000 5.6496 -10.1526 -32.0843 5.4335 7.1250 -0.0000 -0.0000 25.4587 -60.6384 -10.0837
